<?xml version="1.0" ?><!DOCTYPE svg  PUBLIC '-//W3C//DTD SVG 1.1//EN'  'http://www.w3.org/Graphics/SVG/1.1/DTD/svg11.dtd'><svg height="512px" style="enable-background:new 0 0 512 512;" version="1.1" viewBox="0 0 512 512" width="512px" xml:space="preserve" xmlns="http://www.w3.org/2000/svg" xmlns:xlink="http://www.w3.org/1999/xlink"><style type="text/css">
<![CDATA[
	.st0{display:inline;}
	.st1{fill:none;stroke:#000000;stroke-width:16;stroke-linecap:round;stroke-linejoin:round;stroke-miterlimit:10;}
	.st2{display:none;}
]]>
</style><g class="st2" id="layer"><g class="st0"><line class="st1" x1="446" x2="446" y1="43" y2="469"/><line class="st1" x1="66" x2="66" y1="469" y2="43"/><line class="st1" x1="256" x2="256" y1="469" y2="43"/><g><path d="M66.5,131.5c4.136,0,7.5,3.364,7.5,7.5s-3.364,7.5-7.5,7.5S59,143.136,59,139S62.364,131.5,66.5,131.5 M66.5,115.5     C53.521,115.5,43,126.021,43,139s10.521,23.5,23.5,23.5S90,151.979,90,139S79.479,115.5,66.5,115.5L66.5,115.5z"/></g><g><path d="M255.5,360.5c4.136,0,7.5,3.364,7.5,7.5s-3.364,7.5-7.5,7.5s-7.5-3.364-7.5-7.5S251.364,360.5,255.5,360.5 M255.5,344.5     c-12.979,0-23.5,10.521-23.5,23.5s10.521,23.5,23.5,23.5S279,380.979,279,368S268.479,344.5,255.5,344.5L255.5,344.5z"/></g><g><path d="M446.5,206.5c4.136,0,7.5,3.364,7.5,7.5s-3.364,7.5-7.5,7.5s-7.5-3.364-7.5-7.5S442.364,206.5,446.5,206.5 M446.5,190.5     c-12.979,0-23.5,10.521-23.5,23.5s10.521,23.5,23.5,23.5S470,226.979,470,214S459.479,190.5,446.5,190.5L446.5,190.5z"/></g></g></g><g id="layer_copy"><g><path d="M74,116.729V43c0-4.418-3.582-8-8-8s-8,3.582-8,8v74.092C49.224,120.499,43,129.02,43,139s6.224,18.501,15,21.908V469    c0,4.418,3.582,8,8,8s8-3.582,8-8V161.271c9.299-3.131,16-11.916,16-22.271S83.299,119.861,74,116.729z"/><path d="M264,346.092V43c0-4.418-3.582-8-8-8c-4.418,0-8,3.582-8,8v302.729c-9.299,3.131-16,11.916-16,22.271    s6.701,19.14,16,22.271V469c0,4.418,3.582,8,8,8c4.418,0,8-3.582,8-8v-79.092c8.775-3.407,15-11.929,15-21.908    S272.775,349.499,264,346.092z"/><path d="M470,214c0-10.355-6.7-19.139-16-22.271V43c0-4.418-3.582-8-8-8s-8,3.582-8,8v149.092c-8.775,3.407-15,11.928-15,21.908    s6.225,18.501,15,21.908V469c0,4.418,3.582,8,8,8s8-3.582,8-8V236.271C463.3,233.139,470,224.355,470,214z"/></g></g></svg>